<svg viewBox="0 0 1091.666748046875 400.0000305175781" xmlns="http://www.w3.org/2000/svg"><g><g><g><g><g><line x1="90" y1="378" x2="85" y2="378" style="visibility: inherit;" fill="rgb(0, 0, 0)" stroke="rgb(204, 204, 204)" stroke-width="1px"></line><line x1="90" y1="330.75" x2="85" y2="330.75" style="visibility: inherit;" fill="rgb(0, 0, 0)" stroke="rgb(204, 204, 204)" stroke-width="1px"></line><line x1="90" y1="283.5" x2="85" y2="283.5" style="visibility: inherit;" fill="rgb(0, 0, 0)" stroke="rgb(204, 204, 204)" stroke-width="1px"></line><line x1="90" y1="236.25" x2="85" y2="236.25" style="visibility: inherit;" fill="rgb(0, 0, 0)" stroke="rgb(204, 204, 204)" stroke-width="1px"></line><line x1="90" y1="189" x2="85" y2="189" style="visibility: inherit;" fill="rgb(0, 0, 0)" stroke="rgb(204, 204, 204)" stroke-width="1px"></line><line x1="90" y1="141.75" x2="85" y2="141.75" style="visibility: inherit;" fill="rgb(0, 0, 0)" stroke="rgb(204, 204, 204)" stroke-width="1px"></line><line x1="90" y1="94.5" x2="85" y2="94.5" style="visibility: inherit;" fill="rgb(0, 0, 0)" stroke="rgb(204, 204, 204)" stroke-width="1px"></line><line x1="90" y1="47.25" x2="85" y2="47.25" style="visibility: inherit;" fill="rgb(0, 0, 0)" stroke="rgb(204, 204, 204)" stroke-width="1px"></line><line x1="90" y1="0" x2="85" y2="0" style="visibility: inherit;" fill="rgb(0, 0, 0)" stroke="rgb(204, 204, 204)" stroke-width="1px"></line></g><g transform="translate(80, 0)"><text x="0" y="378" dx="0em" dy="0.3em" style="text-anchor: end; visibility: hidden; font-family: &quot;Helvetica Neue&quot;, sans-serif; font-size: 12px; font-weight: 200;" fill="rgb(50, 49, 63)" stroke="none" stroke-width="1px">-1.24e+3</text><text x="0" y="330.75" dx="0em" dy="0.3em" style="text-anchor: end; visibility: inherit; font-family: &quot;Helvetica Neue&quot;, sans-serif; font-size: 12px; font-weight: 200;" fill="rgb(50, 49, 63)" stroke="none" stroke-width="1px">-1.22e+3</text><text x="0" y="283.5" dx="0em" dy="0.3em" style="text-anchor: end; visibility: inherit; font-family: &quot;Helvetica Neue&quot;, sans-serif; font-size: 12px; font-weight: 200;" fill="rgb(50, 49, 63)" stroke="none" stroke-width="1px">-1.2e+3</text><text x="0" y="236.25" dx="0em" dy="0.3em" style="text-anchor: end; visibility: inherit; font-family: &quot;Helvetica Neue&quot;, sans-serif; font-size: 12px; font-weight: 200;" fill="rgb(50, 49, 63)" stroke="none" stroke-width="1px">-1.18e+3</text><text x="0" y="189" dx="0em" dy="0.3em" style="text-anchor: end; visibility: inherit; font-family: &quot;Helvetica Neue&quot;, sans-serif; font-size: 12px; font-weight: 200;" fill="rgb(50, 49, 63)" stroke="none" stroke-width="1px">-1.16e+3</text><text x="0" y="141.75" dx="0em" dy="0.3em" style="text-anchor: end; visibility: inherit; font-family: &quot;Helvetica Neue&quot;, sans-serif; font-size: 12px; font-weight: 200;" fill="rgb(50, 49, 63)" stroke="none" stroke-width="1px">-1.14e+3</text><text x="0" y="94.5" dx="0em" dy="0.3em" style="text-anchor: end; visibility: inherit; font-family: &quot;Helvetica Neue&quot;, sans-serif; font-size: 12px; font-weight: 200;" fill="rgb(50, 49, 63)" stroke="none" stroke-width="1px">-1.12e+3</text><text x="0" y="47.25" dx="0em" dy="0.3em" style="text-anchor: end; visibility: inherit; font-family: &quot;Helvetica Neue&quot;, sans-serif; font-size: 12px; font-weight: 200;" fill="rgb(50, 49, 63)" stroke="none" stroke-width="1px">-1.1e+3</text><text x="0" y="0" dx="0em" dy="0.3em" style="text-anchor: end; visibility: hidden; font-family: &quot;Helvetica Neue&quot;, sans-serif; font-size: 12px; font-weight: 200;" fill="rgb(50, 49, 63)" stroke="none" stroke-width="1px">-1.08e+3</text></g><line x1="90" y1="0" x2="90" y2="378" fill="rgb(0, 0, 0)" stroke="rgb(204, 204, 204)" stroke-width="1px"></line></g></g><g transform="translate(90, 0)" clip-path="url(#clip_0)"><clipPath id="clip_0"><rect width="1001" height="377"></rect></clipPath><g><g><g><line x1="0" y1="0" x2="0" y2="378" fill="rgb(0, 0, 0)" stroke="rgb(60, 60, 60)" stroke-width="1px" opacity="0.25"></line><line x1="71.54785714285714" y1="0" x2="71.54785714285714" y2="378" fill="rgb(0, 0, 0)" stroke="rgb(60, 60, 60)" stroke-width="1px" opacity="0.25"></line><line x1="143.09571428571428" y1="0" x2="143.09571428571428" y2="378" fill="rgb(0, 0, 0)" stroke="rgb(60, 60, 60)" stroke-width="1px" opacity="0.25"></line><line x1="214.64357142857142" y1="0" x2="214.64357142857142" y2="378" fill="rgb(0, 0, 0)" stroke="rgb(60, 60, 60)" stroke-width="1px" opacity="0.25"></line><line x1="286.19142857142856" y1="0" x2="286.19142857142856" y2="378" fill="rgb(0, 0, 0)" stroke="rgb(60, 60, 60)" stroke-width="1px" opacity="0.25"></line><line x1="357.73928571428576" y1="0" x2="357.73928571428576" y2="378" fill="rgb(0, 0, 0)" stroke="rgb(60, 60, 60)" stroke-width="1px" opacity="0.25"></line><line x1="429.28714285714284" y1="0" x2="429.28714285714284" y2="378" fill="rgb(0, 0, 0)" stroke="rgb(60, 60, 60)" stroke-width="1px" opacity="0.25"></line><line x1="500.83500000000004" y1="0" x2="500.83500000000004" y2="378" fill="rgb(0, 0, 0)" stroke="rgb(60, 60, 60)" stroke-width="1px" opacity="0.25"></line><line x1="572.3828571428571" y1="0" x2="572.3828571428571" y2="378" fill="rgb(0, 0, 0)" stroke="rgb(60, 60, 60)" stroke-width="1px" opacity="0.25"></line><line x1="643.9307142857144" y1="0" x2="643.9307142857144" y2="378" fill="rgb(0, 0, 0)" stroke="rgb(60, 60, 60)" stroke-width="1px" opacity="0.25"></line><line x1="715.4785714285715" y1="0" x2="715.4785714285715" y2="378" fill="rgb(0, 0, 0)" stroke="rgb(60, 60, 60)" stroke-width="1px" opacity="0.25"></line><line x1="787.0264285714286" y1="0" x2="787.0264285714286" y2="378" fill="rgb(0, 0, 0)" stroke="rgb(60, 60, 60)" stroke-width="1px" opacity="0.25"></line><line x1="858.5742857142857" y1="0" x2="858.5742857142857" y2="378" fill="rgb(0, 0, 0)" stroke="rgb(60, 60, 60)" stroke-width="1px" opacity="0.25"></line><line x1="930.122142857143" y1="0" x2="930.122142857143" y2="378" fill="rgb(0, 0, 0)" stroke="rgb(60, 60, 60)" stroke-width="1px" opacity="0.25"></line><line x1="1001.6700000000001" y1="0" x2="1001.6700000000001" y2="378" fill="rgb(0, 0, 0)" stroke="rgb(60, 60, 60)" stroke-width="1px" opacity="0.25"></line></g><g><line x1="0" y1="378" x2="1001.6700000000001" y2="378" fill="rgb(0, 0, 0)" stroke="rgb(60, 60, 60)" stroke-width="1px" opacity="0.25"></line><line x1="0" y1="330.75" x2="1001.6700000000001" y2="330.75" fill="rgb(0, 0, 0)" stroke="rgb(60, 60, 60)" stroke-width="1px" opacity="0.25"></line><line x1="0" y1="283.5" x2="1001.6700000000001" y2="283.5" fill="rgb(0, 0, 0)" stroke="rgb(60, 60, 60)" stroke-width="1px" opacity="0.25"></line><line x1="0" y1="236.25" x2="1001.6700000000001" y2="236.25" fill="rgb(0, 0, 0)" stroke="rgb(60, 60, 60)" stroke-width="1px" opacity="0.25"></line><line x1="0" y1="189" x2="1001.6700000000001" y2="189" fill="rgb(0, 0, 0)" stroke="rgb(60, 60, 60)" stroke-width="1px" opacity="0.25"></line><line x1="0" y1="141.75" x2="1001.6700000000001" y2="141.75" fill="rgb(0, 0, 0)" stroke="rgb(60, 60, 60)" stroke-width="1px" opacity="0.25"></line><line x1="0" y1="94.5" x2="1001.6700000000001" y2="94.5" fill="rgb(0, 0, 0)" stroke="rgb(60, 60, 60)" stroke-width="1px" opacity="0.25"></line><line x1="0" y1="47.25" x2="1001.6700000000001" y2="47.25" fill="rgb(0, 0, 0)" stroke="rgb(60, 60, 60)" stroke-width="1px" opacity="0.25"></line><line x1="0" y1="0" x2="1001.6700000000001" y2="0" fill="rgb(0, 0, 0)" stroke="rgb(60, 60, 60)" stroke-width="1px" opacity="0.25"></line></g></g></g><g><g><line x1="0" y1="-2551.5" x2="1001.6700000000001" y2="-2551.5" fill="rgb(0, 0, 0)" stroke="rgb(153, 153, 153)" stroke-width="1.5px"></line></g></g><g><g><line x1="71.54785714285714" y1="0" x2="71.54785714285714" y2="378" fill="rgb(0, 0, 0)" stroke="rgb(153, 153, 153)" stroke-width="1.5px"></line></g></g><g><g><g><g><g><path stroke="rgb(0, 119, 187)" stroke-width="2px" d="M78.13026,181.9125L84.49801928571429,150.4124399185186L90.97310035714285,370.59109104701474L97.34085964285715,277.72988014782175L103.672845,182.03408457261625L110.14792607142857,218.32877748388987L116.62300714285715,254.38408432800503L123.02654035714286,266.87012976152266L129.39429964285713,214.72157906833607L135.79783285714285,195.81361823222997L142.16559214285715,163.20235824819164L148.92686464285717,253.41282194496137L155.3661717857143,262.78239202361453L161.80547892857143,249.32388857043748L168.17323821428573,173.4987197385735L174.57677142857145,244.4517484723765L180.9087567857143,143.1889471260466L187.24074214285716,163.87796945183857L193.64427535714287,237.4037235823965L200.08358250000003,273.1685802214114L206.4513417857143,217.60746774361328L212.85487500000002,227.1120672951787L219.3299560714286,189.6594446024257L225.7334892857143,202.46826590668368L232.10124857142858,193.93089681987578L238.5047817857143,222.986126106986L244.94408892857143,200.7291913365819L251.34762214285718,224.86002962055787L257.6796075,206.42097252619482L264.79861928571427,229.22008855600694L271.2021525,266.36709651309303L277.64145964285717,344.56776413158184L284.1880885714286,252.88819255321775L290.4843,147.00791249833566L296.85205928571435,141.12474739786543L303.18404464285715,186.2623489042878L309.51603,129.23990898968037L315.7764675,107.15398376394796L322.1084528571429,100.35985179108354L328.58353392857146,114.23837264105424L335.05861500000003,123.82552359232182L341.3906003571429,130.0503141583887L347.7583596428572,136.9352269491697L354.1618928571429,155.5560977205792L360.4938782142857,94.75115862602695L366.93318535714286,150.72073363125526L373.2651707142858,119.72744017759328L379.66870392857146,130.426464106796L385.9649153571429,43.92084001076415L392.4399964285715,49.34754245865088L398.9150775,65.0460254752665L405.28283678571427,57.92761528513864L411.8652396428572,74.60403071896383L418.16145107142864,55.62991843135853L424.56498428571433,138.11548951101545L431.14738714285716,177.369293706624L437.47937250000007,213.36403777183432L443.73981000000003,141.09096111523948L450.1791171428572,209.55203821700073L456.51110250000005,188.7311844780507L463.41547071428573,100.63867223467992L469.7474560714286,125.11570334080795L476.0436675,151.299383552337L483.44887071428576,241.34966858355128L489.81663000000003,176.46730115013014L496.2917110714286,129.0328806900784L502.5521485714286,75.05722841404696L508.9556817857143,107.87683704842817L515.5738585714286,119.69356377690855L522.5497746428572,96.54359981399722L528.8459860714286,97.45869834054679L535.2137453571429,159.11771900432848L541.6172785714286,207.92563140259753L548.1639075,144.1278788415583L554.8894060714285,136.87676575708343L561.2571653571429,75.03855945425005L567.6249246428572,89.75317412469877L573.9926839285715,88.34440447481938L580.3604432142857,114.27418113703976L586.7639764285715,160.22950868222395L593.1317357142858,108.5801667571858L599.499495,115.54813850645974L606.4038632142858,257.5413446517274L612.8431703571429,300.6847683388878L619.2109296428572,241.83586100333224L625.5429150000001,167.30901660199956L631.9106742857143,153.1479484133484L639.3158775,119.7662690480089L648.6886467857144,20.04222297665723L658.0614160714285,64.94533378599425L664.5007232142857,200.8772387237453L670.9042564285716,159.42880478209884L678.0590421428572,191.41732132140805L687.8253246428573,181.94539279284484L694.15731,177.04977412785522L700.9185825000001,172.37986447671327L707.2505678571429,217.30041868602774L713.5110053571428,160.46278966376488L719.8787646428572,189.04513534611027L726.2107500000001,159.73208120766637L733.8663707142857,116.47178717674825L742.4878875,189.7406107581975L748.9271946428572,196.0593664549186L756.8332328571429,164.5705814208027L763.344087857143,148.66988730463052L769.7476210714286,175.03947083492665L776.2584760714286,156.68364404880745L782.5904614285714,153.3877248814327L789.6021514285715,196.4551349288596L795.9699107142857,145.12061940946433L802.838505,142.03983319353026L809.2778121428572,157.8314383682665L815.9675367857144,215.6588630209599L822.2637482142857,166.56535626472436L828.5957335714286,144.19675221098294L834.9277189285715,106.04801287444178L842.3329221428572,182.06884617681328L848.7006814285716,135.38626925393953L855.0326667857144,75.87680000451206L861.3288782142857,23.476041550559103L868.3047942857144,52.830624930335375L874.7083275,141.475836506053L881.1834085714286,248.68554035578035L890.5919517857144,318.36632421346843L897.0312589285716,329.61975607593274L903.9356271428572,189.58189209770777L910.3391603571429,169.6615968064762L916.6711457142858,233.46699653603406L923.6112878571429,237.88769792162034L931.5531000000001,270.46508030082396L937.9566332142858,347.1840097283464L944.2528446428572,262.01794428915605L950.656377857143,299.27580502564217L959.2778946428572,324.9380214675339L965.6098800000001,207.40527442837208" style="fill: none;" fill="none"></path></g></g></g></g><g opacity="0.2"><g><g><g><path stroke="rgb(0, 119, 187)" stroke-width="2px" d="M78.13026,181.9125L84.49801928571429,131.5124038696289L90.97310035714285,581.9625961303711L97.34085964285715,168.5250961303711L103.672845,57.093653869628895L110.14792607142857,268.5374038696289L116.62300714285715,305.94375L123.02654035714286,285.0749038696289L129.39429964285713,137.81259613037108L135.79783285714285,167.73749999999998L142.16559214285715,114.58125000000001L148.92686464285717,388.2375961303711L155.3661717857143,276.80615386962893L161.80547892857143,229.1625L168.17323821428573,59.85009613037113L174.57677142857145,350.83125L180.9087567857143,-8.662403869628918L187.24074214285716,194.90625L193.64427535714287,347.68115386962893L200.08358250000003,326.8125961303711L206.4513417857143,134.2688461303711L212.85487500000002,241.3686538696289L219.3299560714286,133.48125000000002L225.7334892857143,221.6813461303711L232.10124857142858,181.12490386962892L238.5047817857143,266.56884613037107L244.94408892857143,167.34384613037108L251.34762214285718,261.05625L257.6796075,178.7624038696289L264.79861928571427,263.41875L271.2021525,322.0875961303711L277.64145964285717,461.86875L284.1880885714286,115.36884613037108L290.4843,-11.8125L296.85205928571435,132.29999999999998L303.18404464285715,253.96875L309.51603,43.70625000000001L315.7764675,74.02509613037108L322.1084528571429,90.16865386962894L328.58353392857146,135.0561538696289L335.05861500000003,138.20624999999998L341.3906003571429,139.38750000000002L347.7583596428572,147.2625961303711L354.1618928571429,183.4874038696289L360.4938782142857,3.5437499999999886L366.93318535714286,234.6750961303711L373.2651707142858,73.23750000000001L379.66870392857146,146.475L385.9649153571429,-85.83759613037108L392.4399964285715,57.48759613037106L398.9150775,88.59375L405.28283678571427,47.25L411.8652396428572,99.61865386962887L418.16145107142864,27.16874999999999L424.56498428571433,261.8438461303711L431.14738714285716,236.25L437.47937250000007,267.3561538696289L443.73981000000003,32.68134613037108L450.1791171428572,312.24365386962893L456.51110250000005,157.49990386962892L463.41547071428573,-31.500096130371105L469.7474560714286,161.83124999999998L476.0436675,190.5749038696289L483.44887071428576,376.4250961303711L489.81663000000003,79.14375000000001L496.2917110714286,57.881249999999966L502.5521485714286,-5.90625L508.9556817857143,157.10625000000002L515.5738585714286,137.4186538696289L522.5497746428572,61.81865386962892L528.8459860714286,98.83134613037106L535.2137453571429,251.60625L541.6172785714286,281.1375L548.1639075,48.431250000000034L554.8894060714285,126.00009613037108L561.2571653571429,-17.71875L567.6249246428572,111.8250961303711L573.9926839285715,86.23124999999999L580.3604432142857,153.1688461303711L586.7639764285715,229.1625L593.1317357142858,31.10615386962894L599.499495,126.00009613037108L606.4038632142858,470.5311538696289L612.8431703571429,365.39990386962893L619.2109296428572,153.5625L625.5429150000001,55.51875000000001L631.9106742857143,131.90634613037108L639.3158775,69.69374999999997L648.6886467857144,-129.5438461303711L658.0614160714285,132.29999999999998L664.5007232142857,404.7750961303711L670.9042564285716,97.25615386962892L678.0590421428572,239.4000961303711L687.8253246428573,167.73749999999998L694.15731,169.7063461303711L700.9185825000001,165.375L707.2505678571429,284.68125L713.5110053571428,75.20634613037106L719.8787646428572,231.9186538696289L726.2107500000001,115.76249999999999L733.8663707142857,51.58134613037106L742.4878875,299.6438461303711L748.9271946428572,205.5375L756.8332328571429,117.33740386962887L763.344087857143,124.8188461303711L769.7476210714286,214.59384613037108L776.2584760714286,129.1499038696289L782.5904614285714,148.4438461303711L789.6021514285715,261.05625L795.9699107142857,68.11884613037108L802.838505,137.4186538696289L809.2778121428572,181.5188461303711L815.9675367857144,302.4L822.2637482142857,92.92509613037106L828.5957335714286,110.64384613037106L834.9277189285715,48.82490386962894L842.3329221428572,296.10009613037107L848.7006814285716,65.3624038696289L855.0326667857144,-13.38740386962894L861.3288782142857,-55.125096130371105L868.3047942857144,96.86250000000001L874.7083275,274.4436538696289L881.1834085714286,409.5000961303711L890.5919517857144,422.8875L897.0312589285716,346.4999038696289L903.9356271428572,-20.474903869628918L910.3391603571429,139.78115386962892L916.6711457142858,329.1750961303711L923.6112878571429,244.51874999999998L931.5531000000001,319.3311538696289L937.9566332142858,462.2624038696289L944.2528446428572,134.2688461303711L950.656377857143,355.16259613037107L959.2778946428572,363.4313461303711L965.6098800000001,31.10615386962894" style="fill: none;" fill="none"></path></g></g></g></g></g></g><g transform="translate(90, 378)" clip-path="url(#clip_1)"><clipPath id="clip_1"><rect width="1001" height="21"></rect></clipPath><g><g><line x1="0" y1="0" x2="0" y2="5" style="visibility: inherit;" fill="rgb(0, 0, 0)" stroke="rgb(204, 204, 204)" stroke-width="1px"></line><line x1="71.54785714285714" y1="0" x2="71.54785714285714" y2="5" style="visibility: inherit;" fill="rgb(0, 0, 0)" stroke="rgb(204, 204, 204)" stroke-width="1px"></line><line x1="143.09571428571428" y1="0" x2="143.09571428571428" y2="5" style="visibility: inherit;" fill="rgb(0, 0, 0)" stroke="rgb(204, 204, 204)" stroke-width="1px"></line><line x1="214.64357142857142" y1="0" x2="214.64357142857142" y2="5" style="visibility: inherit;" fill="rgb(0, 0, 0)" stroke="rgb(204, 204, 204)" stroke-width="1px"></line><line x1="286.19142857142856" y1="0" x2="286.19142857142856" y2="5" style="visibility: inherit;" fill="rgb(0, 0, 0)" stroke="rgb(204, 204, 204)" stroke-width="1px"></line><line x1="357.73928571428576" y1="0" x2="357.73928571428576" y2="5" style="visibility: inherit;" fill="rgb(0, 0, 0)" stroke="rgb(204, 204, 204)" stroke-width="1px"></line><line x1="429.28714285714284" y1="0" x2="429.28714285714284" y2="5" style="visibility: inherit;" fill="rgb(0, 0, 0)" stroke="rgb(204, 204, 204)" stroke-width="1px"></line><line x1="500.83500000000004" y1="0" x2="500.83500000000004" y2="5" style="visibility: inherit;" fill="rgb(0, 0, 0)" stroke="rgb(204, 204, 204)" stroke-width="1px"></line><line x1="572.3828571428571" y1="0" x2="572.3828571428571" y2="5" style="visibility: inherit;" fill="rgb(0, 0, 0)" stroke="rgb(204, 204, 204)" stroke-width="1px"></line><line x1="643.9307142857144" y1="0" x2="643.9307142857144" y2="5" style="visibility: inherit;" fill="rgb(0, 0, 0)" stroke="rgb(204, 204, 204)" stroke-width="1px"></line><line x1="715.4785714285715" y1="0" x2="715.4785714285715" y2="5" style="visibility: inherit;" fill="rgb(0, 0, 0)" stroke="rgb(204, 204, 204)" stroke-width="1px"></line><line x1="787.0264285714286" y1="0" x2="787.0264285714286" y2="5" style="visibility: inherit;" fill="rgb(0, 0, 0)" stroke="rgb(204, 204, 204)" stroke-width="1px"></line><line x1="858.5742857142857" y1="0" x2="858.5742857142857" y2="5" style="visibility: inherit;" fill="rgb(0, 0, 0)" stroke="rgb(204, 204, 204)" stroke-width="1px"></line><line x1="930.122142857143" y1="0" x2="930.122142857143" y2="5" style="visibility: inherit;" fill="rgb(0, 0, 0)" stroke="rgb(204, 204, 204)" stroke-width="1px"></line><line x1="1001.6700000000001" y1="0" x2="1001.6700000000001" y2="5" style="visibility: inherit;" fill="rgb(0, 0, 0)" stroke="rgb(204, 204, 204)" stroke-width="1px"></line></g><g transform="translate(0, 8)"><text x="0" y="0" dx="0em" dy="0.95em" style="text-anchor: middle; visibility: hidden; font-family: &quot;Helvetica Neue&quot;, sans-serif; font-size: 12px; font-weight: 200;" fill="rgb(50, 49, 63)" stroke="none" stroke-width="1px">-2k</text><text x="71.54785714285714" y="0" dx="0em" dy="0.95em" style="text-anchor: middle; visibility: inherit; font-family: &quot;Helvetica Neue&quot;, sans-serif; font-size: 12px; font-weight: 200;" fill="rgb(50, 49, 63)" stroke="none" stroke-width="1px">0</text><text x="143.09571428571428" y="0" dx="0em" dy="0.95em" style="text-anchor: middle; visibility: inherit; font-family: &quot;Helvetica Neue&quot;, sans-serif; font-size: 12px; font-weight: 200;" fill="rgb(50, 49, 63)" stroke="none" stroke-width="1px">2k</text><text x="214.64357142857142" y="0" dx="0em" dy="0.95em" style="text-anchor: middle; visibility: inherit; font-family: &quot;Helvetica Neue&quot;, sans-serif; font-size: 12px; font-weight: 200;" fill="rgb(50, 49, 63)" stroke="none" stroke-width="1px">4k</text><text x="286.19142857142856" y="0" dx="0em" dy="0.95em" style="text-anchor: middle; visibility: inherit; font-family: &quot;Helvetica Neue&quot;, sans-serif; font-size: 12px; font-weight: 200;" fill="rgb(50, 49, 63)" stroke="none" stroke-width="1px">6k</text><text x="357.73928571428576" y="0" dx="0em" dy="0.95em" style="text-anchor: middle; visibility: inherit; font-family: &quot;Helvetica Neue&quot;, sans-serif; font-size: 12px; font-weight: 200;" fill="rgb(50, 49, 63)" stroke="none" stroke-width="1px">8k</text><text x="429.28714285714284" y="0" dx="0em" dy="0.95em" style="text-anchor: middle; visibility: inherit; font-family: &quot;Helvetica Neue&quot;, sans-serif; font-size: 12px; font-weight: 200;" fill="rgb(50, 49, 63)" stroke="none" stroke-width="1px">10k</text><text x="500.83500000000004" y="0" dx="0em" dy="0.95em" style="text-anchor: middle; visibility: inherit; font-family: &quot;Helvetica Neue&quot;, sans-serif; font-size: 12px; font-weight: 200;" fill="rgb(50, 49, 63)" stroke="none" stroke-width="1px">12k</text><text x="572.3828571428571" y="0" dx="0em" dy="0.95em" style="text-anchor: middle; visibility: inherit; font-family: &quot;Helvetica Neue&quot;, sans-serif; font-size: 12px; font-weight: 200;" fill="rgb(50, 49, 63)" stroke="none" stroke-width="1px">14k</text><text x="643.9307142857144" y="0" dx="0em" dy="0.95em" style="text-anchor: middle; visibility: inherit; font-family: &quot;Helvetica Neue&quot;, sans-serif; font-size: 12px; font-weight: 200;" fill="rgb(50, 49, 63)" stroke="none" stroke-width="1px">16k</text><text x="715.4785714285715" y="0" dx="0em" dy="0.95em" style="text-anchor: middle; visibility: inherit; font-family: &quot;Helvetica Neue&quot;, sans-serif; font-size: 12px; font-weight: 200;" fill="rgb(50, 49, 63)" stroke="none" stroke-width="1px">18k</text><text x="787.0264285714286" y="0" dx="0em" dy="0.95em" style="text-anchor: middle; visibility: inherit; font-family: &quot;Helvetica Neue&quot;, sans-serif; font-size: 12px; font-weight: 200;" fill="rgb(50, 49, 63)" stroke="none" stroke-width="1px">20k</text><text x="858.5742857142857" y="0" dx="0em" dy="0.95em" style="text-anchor: middle; visibility: inherit; font-family: &quot;Helvetica Neue&quot;, sans-serif; font-size: 12px; font-weight: 200;" fill="rgb(50, 49, 63)" stroke="none" stroke-width="1px">22k</text><text x="930.122142857143" y="0" dx="0em" dy="0.95em" style="text-anchor: middle; visibility: inherit; font-family: &quot;Helvetica Neue&quot;, sans-serif; font-size: 12px; font-weight: 200;" fill="rgb(50, 49, 63)" stroke="none" stroke-width="1px">24k</text><text x="1001.6700000000001" y="0" dx="0em" dy="0.95em" style="text-anchor: middle; visibility: hidden; font-family: &quot;Helvetica Neue&quot;, sans-serif; font-size: 12px; font-weight: 200;" fill="rgb(50, 49, 63)" stroke="none" stroke-width="1px">26k</text></g><line x1="0" y1="0" x2="1001.6700000000001" y2="0" fill="rgb(0, 0, 0)" stroke="rgb(204, 204, 204)" stroke-width="1px"></line></g></g></g></g></svg>