<svg viewBox="0 0 1091.666748046875 400.0000305175781" xmlns="http://www.w3.org/2000/svg"><g><g><g><g><g><line x1="90" y1="378" x2="85" y2="378" style="visibility: inherit;" fill="rgb(0, 0, 0)" stroke="rgb(204, 204, 204)" stroke-width="1px"></line><line x1="90" y1="343.6363636363636" x2="85" y2="343.6363636363636" style="visibility: inherit;" fill="rgb(0, 0, 0)" stroke="rgb(204, 204, 204)" stroke-width="1px"></line><line x1="90" y1="309.27272727272725" x2="85" y2="309.27272727272725" style="visibility: inherit;" fill="rgb(0, 0, 0)" stroke="rgb(204, 204, 204)" stroke-width="1px"></line><line x1="90" y1="274.90909090909093" x2="85" y2="274.90909090909093" style="visibility: inherit;" fill="rgb(0, 0, 0)" stroke="rgb(204, 204, 204)" stroke-width="1px"></line><line x1="90" y1="240.54545454545453" x2="85" y2="240.54545454545453" style="visibility: inherit;" fill="rgb(0, 0, 0)" stroke="rgb(204, 204, 204)" stroke-width="1px"></line><line x1="90" y1="206.1818181818182" x2="85" y2="206.1818181818182" style="visibility: inherit;" fill="rgb(0, 0, 0)" stroke="rgb(204, 204, 204)" stroke-width="1px"></line><line x1="90" y1="171.81818181818184" x2="85" y2="171.81818181818184" style="visibility: inherit;" fill="rgb(0, 0, 0)" stroke="rgb(204, 204, 204)" stroke-width="1px"></line><line x1="90" y1="137.45454545454547" x2="85" y2="137.45454545454547" style="visibility: inherit;" fill="rgb(0, 0, 0)" stroke="rgb(204, 204, 204)" stroke-width="1px"></line><line x1="90" y1="103.09090909090907" x2="85" y2="103.09090909090907" style="visibility: inherit;" fill="rgb(0, 0, 0)" stroke="rgb(204, 204, 204)" stroke-width="1px"></line><line x1="90" y1="68.72727272727269" x2="85" y2="68.72727272727269" style="visibility: inherit;" fill="rgb(0, 0, 0)" stroke="rgb(204, 204, 204)" stroke-width="1px"></line><line x1="90" y1="34.363636363636374" x2="85" y2="34.363636363636374" style="visibility: inherit;" fill="rgb(0, 0, 0)" stroke="rgb(204, 204, 204)" stroke-width="1px"></line><line x1="90" y1="0" x2="85" y2="0" style="visibility: inherit;" fill="rgb(0, 0, 0)" stroke="rgb(204, 204, 204)" stroke-width="1px"></line></g><g transform="translate(80, 0)"><text x="0" y="378" dx="0em" dy="0.3em" style="text-anchor: end; visibility: hidden; font-family: &quot;Helvetica Neue&quot;, sans-serif; font-size: 12px; font-weight: 200;" fill="rgb(50, 49, 63)" stroke="none" stroke-width="1px">-1.23e+3</text><text x="0" y="343.6363636363636" dx="0em" dy="0.3em" style="text-anchor: end; visibility: inherit; font-family: &quot;Helvetica Neue&quot;, sans-serif; font-size: 12px; font-weight: 200;" fill="rgb(50, 49, 63)" stroke="none" stroke-width="1px">-1.22e+3</text><text x="0" y="309.27272727272725" dx="0em" dy="0.3em" style="text-anchor: end; visibility: inherit; font-family: &quot;Helvetica Neue&quot;, sans-serif; font-size: 12px; font-weight: 200;" fill="rgb(50, 49, 63)" stroke="none" stroke-width="1px">-1.21e+3</text><text x="0" y="274.90909090909093" dx="0em" dy="0.3em" style="text-anchor: end; visibility: inherit; font-family: &quot;Helvetica Neue&quot;, sans-serif; font-size: 12px; font-weight: 200;" fill="rgb(50, 49, 63)" stroke="none" stroke-width="1px">-1.2e+3</text><text x="0" y="240.54545454545453" dx="0em" dy="0.3em" style="text-anchor: end; visibility: inherit; font-family: &quot;Helvetica Neue&quot;, sans-serif; font-size: 12px; font-weight: 200;" fill="rgb(50, 49, 63)" stroke="none" stroke-width="1px">-1.19e+3</text><text x="0" y="206.1818181818182" dx="0em" dy="0.3em" style="text-anchor: end; visibility: inherit; font-family: &quot;Helvetica Neue&quot;, sans-serif; font-size: 12px; font-weight: 200;" fill="rgb(50, 49, 63)" stroke="none" stroke-width="1px">-1.18e+3</text><text x="0" y="171.81818181818184" dx="0em" dy="0.3em" style="text-anchor: end; visibility: inherit; font-family: &quot;Helvetica Neue&quot;, sans-serif; font-size: 12px; font-weight: 200;" fill="rgb(50, 49, 63)" stroke="none" stroke-width="1px">-1.17e+3</text><text x="0" y="137.45454545454547" dx="0em" dy="0.3em" style="text-anchor: end; visibility: inherit; font-family: &quot;Helvetica Neue&quot;, sans-serif; font-size: 12px; font-weight: 200;" fill="rgb(50, 49, 63)" stroke="none" stroke-width="1px">-1.16e+3</text><text x="0" y="103.09090909090907" dx="0em" dy="0.3em" style="text-anchor: end; visibility: inherit; font-family: &quot;Helvetica Neue&quot;, sans-serif; font-size: 12px; font-weight: 200;" fill="rgb(50, 49, 63)" stroke="none" stroke-width="1px">-1.15e+3</text><text x="0" y="68.72727272727269" dx="0em" dy="0.3em" style="text-anchor: end; visibility: inherit; font-family: &quot;Helvetica Neue&quot;, sans-serif; font-size: 12px; font-weight: 200;" fill="rgb(50, 49, 63)" stroke="none" stroke-width="1px">-1.14e+3</text><text x="0" y="34.363636363636374" dx="0em" dy="0.3em" style="text-anchor: end; visibility: inherit; font-family: &quot;Helvetica Neue&quot;, sans-serif; font-size: 12px; font-weight: 200;" fill="rgb(50, 49, 63)" stroke="none" stroke-width="1px">-1.13e+3</text><text x="0" y="0" dx="0em" dy="0.3em" style="text-anchor: end; visibility: hidden; font-family: &quot;Helvetica Neue&quot;, sans-serif; font-size: 12px; font-weight: 200;" fill="rgb(50, 49, 63)" stroke="none" stroke-width="1px">-1.12e+3</text></g><line x1="90" y1="0" x2="90" y2="378" fill="rgb(0, 0, 0)" stroke="rgb(204, 204, 204)" stroke-width="1px"></line></g></g><g transform="translate(90, 0)" clip-path="url(#clip_0)"><clipPath id="clip_0"><rect width="1001" height="377"></rect></clipPath><g><g><g><line x1="0" y1="0" x2="0" y2="378" fill="rgb(0, 0, 0)" stroke="rgb(60, 60, 60)" stroke-width="1px" opacity="0.25"></line><line x1="71.54785714285714" y1="0" x2="71.54785714285714" y2="378" fill="rgb(0, 0, 0)" stroke="rgb(60, 60, 60)" stroke-width="1px" opacity="0.25"></line><line x1="143.09571428571428" y1="0" x2="143.09571428571428" y2="378" fill="rgb(0, 0, 0)" stroke="rgb(60, 60, 60)" stroke-width="1px" opacity="0.25"></line><line x1="214.64357142857142" y1="0" x2="214.64357142857142" y2="378" fill="rgb(0, 0, 0)" stroke="rgb(60, 60, 60)" stroke-width="1px" opacity="0.25"></line><line x1="286.19142857142856" y1="0" x2="286.19142857142856" y2="378" fill="rgb(0, 0, 0)" stroke="rgb(60, 60, 60)" stroke-width="1px" opacity="0.25"></line><line x1="357.73928571428576" y1="0" x2="357.73928571428576" y2="378" fill="rgb(0, 0, 0)" stroke="rgb(60, 60, 60)" stroke-width="1px" opacity="0.25"></line><line x1="429.28714285714284" y1="0" x2="429.28714285714284" y2="378" fill="rgb(0, 0, 0)" stroke="rgb(60, 60, 60)" stroke-width="1px" opacity="0.25"></line><line x1="500.83500000000004" y1="0" x2="500.83500000000004" y2="378" fill="rgb(0, 0, 0)" stroke="rgb(60, 60, 60)" stroke-width="1px" opacity="0.25"></line><line x1="572.3828571428571" y1="0" x2="572.3828571428571" y2="378" fill="rgb(0, 0, 0)" stroke="rgb(60, 60, 60)" stroke-width="1px" opacity="0.25"></line><line x1="643.9307142857144" y1="0" x2="643.9307142857144" y2="378" fill="rgb(0, 0, 0)" stroke="rgb(60, 60, 60)" stroke-width="1px" opacity="0.25"></line><line x1="715.4785714285715" y1="0" x2="715.4785714285715" y2="378" fill="rgb(0, 0, 0)" stroke="rgb(60, 60, 60)" stroke-width="1px" opacity="0.25"></line><line x1="787.0264285714286" y1="0" x2="787.0264285714286" y2="378" fill="rgb(0, 0, 0)" stroke="rgb(60, 60, 60)" stroke-width="1px" opacity="0.25"></line><line x1="858.5742857142857" y1="0" x2="858.5742857142857" y2="378" fill="rgb(0, 0, 0)" stroke="rgb(60, 60, 60)" stroke-width="1px" opacity="0.25"></line><line x1="930.122142857143" y1="0" x2="930.122142857143" y2="378" fill="rgb(0, 0, 0)" stroke="rgb(60, 60, 60)" stroke-width="1px" opacity="0.25"></line><line x1="1001.6700000000001" y1="0" x2="1001.6700000000001" y2="378" fill="rgb(0, 0, 0)" stroke="rgb(60, 60, 60)" stroke-width="1px" opacity="0.25"></line></g><g><line x1="0" y1="378" x2="1001.6700000000001" y2="378" fill="rgb(0, 0, 0)" stroke="rgb(60, 60, 60)" stroke-width="1px" opacity="0.25"></line><line x1="0" y1="343.6363636363636" x2="1001.6700000000001" y2="343.6363636363636" fill="rgb(0, 0, 0)" stroke="rgb(60, 60, 60)" stroke-width="1px" opacity="0.25"></line><line x1="0" y1="309.27272727272725" x2="1001.6700000000001" y2="309.27272727272725" fill="rgb(0, 0, 0)" stroke="rgb(60, 60, 60)" stroke-width="1px" opacity="0.25"></line><line x1="0" y1="274.90909090909093" x2="1001.6700000000001" y2="274.90909090909093" fill="rgb(0, 0, 0)" stroke="rgb(60, 60, 60)" stroke-width="1px" opacity="0.25"></line><line x1="0" y1="240.54545454545453" x2="1001.6700000000001" y2="240.54545454545453" fill="rgb(0, 0, 0)" stroke="rgb(60, 60, 60)" stroke-width="1px" opacity="0.25"></line><line x1="0" y1="206.1818181818182" x2="1001.6700000000001" y2="206.1818181818182" fill="rgb(0, 0, 0)" stroke="rgb(60, 60, 60)" stroke-width="1px" opacity="0.25"></line><line x1="0" y1="171.81818181818184" x2="1001.6700000000001" y2="171.81818181818184" fill="rgb(0, 0, 0)" stroke="rgb(60, 60, 60)" stroke-width="1px" opacity="0.25"></line><line x1="0" y1="137.45454545454547" x2="1001.6700000000001" y2="137.45454545454547" fill="rgb(0, 0, 0)" stroke="rgb(60, 60, 60)" stroke-width="1px" opacity="0.25"></line><line x1="0" y1="103.09090909090907" x2="1001.6700000000001" y2="103.09090909090907" fill="rgb(0, 0, 0)" stroke="rgb(60, 60, 60)" stroke-width="1px" opacity="0.25"></line><line x1="0" y1="68.72727272727269" x2="1001.6700000000001" y2="68.72727272727269" fill="rgb(0, 0, 0)" stroke="rgb(60, 60, 60)" stroke-width="1px" opacity="0.25"></line><line x1="0" y1="34.363636363636374" x2="1001.6700000000001" y2="34.363636363636374" fill="rgb(0, 0, 0)" stroke="rgb(60, 60, 60)" stroke-width="1px" opacity="0.25"></line><line x1="0" y1="0" x2="1001.6700000000001" y2="0" fill="rgb(0, 0, 0)" stroke="rgb(60, 60, 60)" stroke-width="1px" opacity="0.25"></line></g></g></g><g><g><line x1="0" y1="-3848.727272727273" x2="1001.6700000000001" y2="-3848.727272727273" fill="rgb(0, 0, 0)" stroke="rgb(153, 153, 153)" stroke-width="1.5px"></line></g></g><g><g><line x1="71.54785714285714" y1="0" x2="71.54785714285714" y2="378" fill="rgb(0, 0, 0)" stroke="rgb(153, 153, 153)" stroke-width="1.5px"></line></g></g><g><g><g><g><g><path stroke="rgb(255, 112, 67)" stroke-width="2px" d="M82.60200107142857,438.1363636363636L89.00553428571429,261.04314582894335L95.48061535714287,357.1125923173313L101.88414857142858,373.97793428767767L108.21613392857144,219.86109376538727L114.61966714285715,199.81488676064123L120.98742642857144,189.8259971097087L127.3194117857143,173.07882923432655L133.61562321428573,151.3953183168144L140.01915642857145,186.93971881287607L146.56578535714286,346.487495860178L153.00509250000002,306.70480378817484L159.44439964285715,277.133929865054L165.8837067857143,266.5954324321968L172.32301392857144,275.7328370138777L178.6549992857143,136.58534491737075L185.09430642857143,198.74687760716017L191.5693875,253.82778275892957L198.00869464285717,228.6060875322491L204.37645392857144,154.91223615240116L210.7442132142857,210.06405750470228L217.14774642857142,227.0152278038586L223.5870535714286,280.1131064906239L229.91903892857144,182.02975319780808L236.42989392857146,267.5397364887466L242.83342714285718,275.59278265620907L249.2727342857143,294.9058718771711L255.71204142857144,247.39389409208744L262.11557464285715,192.54783848348524L268.4833339285714,200.02546021584592L274.85109321428575,255.77134788491708L281.2188525,159.66746701427027L287.6939335714286,227.33572838910362L294.2405625,211.38020610835088L301.50267,186.75681211032773L307.8346553571429,126.81547713221286L314.2381885714286,171.82101039745768L320.6059478571429,138.38201018492103L326.97370714285717,162.6867975695965L333.44878821428574,238.1938014035151L339.7807735714286,209.2840771728415L346.1843067857143,209.9572271706884L352.62361392857144,202.70750143121447L359.0629210714286,222.44467782606094L365.46645428571435,187.42939522114162L371.86998750000004,161.83281734014784L378.1661989285715,9.940207037205198L384.6770539285714,146.63141033678687L391.0090392857143,116.1945890503203L397.4125725,122.4164824465478L403.81610571428575,159.47209444406653L410.2554128571429,233.02774713562414L416.69472,340.3163916057393L423.1340271428572,357.5608792120164L429.50178642857145,315.2348744532892L436.0484153571429,220.66704511155595L442.4161746428572,182.28988117376483L448.85548178571435,282.36306420323575L455.47365857142864,194.63224318359187L461.9845135714286,239.3728405569899L468.31649892857143,77.07537571385888L474.79158,168.26451652626417L481.23088714285717,227.85292824209617L487.6344203571429,241.40885000537205L494.10950142857143,300.67559306689185L500.47726071428576,275.6930262219588L506.95234178571434,317.515359484196L513.2485532142857,157.20176661925146L519.6520864285715,154.1060598954067L526.1271675,224.34969911411756L532.5664746428572,238.1153614410584L539.0415557142858,265.9634865247651L545.4808628571429,277.1632906257524L551.8843960714286,260.8319399830308L558.2521553571429,188.61678225878714L564.5483667857143,125.05978676880991L570.9876739285716,221.92545893520702L577.534302857143,277.43860881284235L583.8305142857143,142.29297280333412L590.1267257142858,126.61687772384087L596.4587110714285,56.34479637587452L602.9337921428572,108.49696639257036L609.4088732142858,209.66811636964295L615.8124064285714,252.8583291542351L622.2159396428573,278.12501537346424L628.5836989285715,142.75423801207603L635.3091975,124.10902976229661L641.6411828571429,116.46371386318907L648.0447160714286,248.64764258040944L654.9490842857143,300.65579763221785L661.3526175000001,272.6739592368327L667.7203767857143,272.84351878896933L674.1954578571429,305.2683987632615L680.5989910714286,221.6715181059861L687.0382982142858,293.7991147126771L693.4418314285715,273.5140959960101L699.8453646428572,128.19648119184717L706.2488978571429,166.73763536092142L712.688205,141.35300005344823L719.0559642857144,68.87748008066171L725.3879496428572,21.30105793167644L731.8272567857143,142.61901133846712L738.2307900000001,135.2894301649047L744.4912275,96.55013343445222L750.8947607142858,188.11431734906003L757.3340678571429,245.70050348513095L763.7376010714286,277.25990197837183L770.1411342857144,202.28624463017567L776.5446675000001,139.31773820965952L782.876652857143,146.97225684890807L789.3517339285714,37.33692023882975L795.8625889285714,52.705028582311286L802.1945742857143,110.93530648004008L808.5623335714286,166.97296231822392L814.858545,90.60260381349985L821.190530357143,33.27033158085334L827.5225157142858,67.06699877758894L833.9975967857143,129.04000499672205L840.4369039285715,201.68186517597923L846.7331153571429,160.3270133982584L853.1724225,290.5221798679762L859.504407857143,219.27633255238774L865.8006192857143,177.78613183884093L872.2041525000001,192.54774464044573L878.6434596428572,177.4828021718175L885.0827667857143,176.5641252860237L891.3789782142858,142.50857360200916L897.7467375000001,100.83783418782298L904.8657492857144,79.03429730148952L911.2335085714286,100.82614819498173L917.601267857143,112.65245381359051L924.4698621428572,102.18993987182381L931.0164910714286,206.36897554912122L937.384250357143,121.39728752426532L943.7520096428572,151.4608681253975L950.1197689285715,116.2465492431935L956.5233021428572,148.18738068304518L962.9268353571429,99.39411113647822" style="fill: none;" fill="none"></path></g></g></g></g><g opacity="0.2"><g><g><g><path stroke="rgb(255, 112, 67)" stroke-width="2px" d="M82.60200107142857,438.1363636363636L89.00553428571429,142.03650346235796L95.48061535714287,465.0546852805398L108.21613392857144,-31.499860174005732L114.61966714285715,164.3728670987216L120.98742642857144,171.24559437144887L127.3194117857143,140.89090909090908L133.61562321428573,108.81804199218749L140.01915642857145,257.72727272727275L146.56578535714286,667.2271329012784L153.00509250000002,226.22741255326704L159.44439964285715,217.06349653764204L165.8837067857143,245.12741255326705L172.32301392857144,294.38167835582385L178.6549992857143,-147.76363636363635L185.09430642857143,325.8819580078125L191.5693875,366.54531471946024L198.00869464285717,176.97272727272727L204.37645392857144,4.008951083096576L210.7442132142857,323.0181818181818L217.14774642857142,261.7362238103693L223.5870535714286,388.88167835582385L236.42989392857146,442.7183216441761L242.83342714285718,292.0909090909091L249.2727342857143,334.47286709872157L255.71204142857144,150.0544056285511L262.11557464285715,80.18195800781251L268.4833339285714,215.34531471946022L274.85109321428575,369.9816783558239L281.2188525,-37.227412553267015L287.6939335714286,365.9727272727273L294.2405625,178.69090909090912L301.50267,136.30895108309662L307.8346553571429,4.008951083096576L314.2381885714286,264.027412553267L320.6059478571429,69.8728670987216L326.97370714285717,212.4819580078125L333.44878821428574,392.8910489169034L339.7807735714286,150.0544056285511L346.1843067857143,211.33636363636364L352.62361392857144,187.85440562855115L359.0629210714286,262.8818181818182L365.46645428571435,115.69076926491476L371.86998750000004,109.3910489169034L378.1661989285715,-301.2544056285511L384.6770539285714,426.68167835582386L391.0090392857143,53.83622381036929L397.4125725,135.16377618963068L403.81610571428575,235.3909090909091L410.2554128571429,383.7271329012784L423.1340271428572,392.8910489169034L429.50178642857145,228.51818181818183L436.0484153571429,26.91832164417616L442.4161746428572,103.66349653764206L448.85548178571435,487.3910489169034L455.47365857142864,14.8910489169034L461.9845135714286,331.0365034623579L468.31649892857143,-255.43650346235802L474.79158,355.0910489169034L481.23088714285717,349.93650346235796L487.6344203571429,269.1819580078125L494.10950142857143,422.10013982599435L500.47726071428576,224.50923073508523L506.95234178571434,403.2001398259943L513.2485532142857,-171.24559437144887L519.6520864285715,147.76363636363635L526.1271675,368.263496537642L532.5664746428572,266.3181818181818L539.0415557142858,323.0181818181818L545.4808628571429,300.10923073508525L551.8843960714286,227.37258744673295L558.2521553571429,40.66377618963071L564.5483667857143,-5.1545454545454845L583.8305142857143,-134.5907692649148L590.1267257142858,94.5L596.4587110714285,-87.62727272727278L602.9337921428572,215.34531471946022L609.4088732142858,416.94559437144886L615.8124064285714,341.34559437144884L622.2159396428573,329.8909090909091L628.5836989285715,-134.5907692649148L635.3091975,85.90909090909093L641.6411828571429,100.80013982599434L648.0447160714286,519.4634965376421L654.9490842857143,407.2090909090909L661.3526175000001,215.34531471946022L667.7203767857143,273.1909090909091L674.1954578571429,371.69986017400566L680.5989910714286,50.39986017400571L687.0382982142858,441.57272727272726L693.4418314285715,231.95454545454547L699.8453646428572,-169.52741255326703L706.2488978571429,245.70000000000002L712.688205,89.34545454545452L719.0559642857144,-79.6089510830966L731.8272567857143,391.1728670987216L738.2307900000001,120.27272727272731L744.4912275,17.181818181818187L750.8947607142858,375.7092307350852L757.3340678571429,363.6819580078125L763.7376010714286,341.91818181818184L770.1411342857144,48.68167835582386L776.5446675000001,10.309090909090912L782.876652857143,162.65468528053978L789.3517339285714,-187.28181818181815L795.8625889285714,84.19090909090909L802.1945742857143,230.23636363636362L808.5623335714286,281.7818181818182L814.858545,-65.86349653764205L821.190530357143,-84.19090909090909L827.5225157142858,136.30895108309662L833.9975967857143,256.0090909090909L840.4369039285715,350.5090909090909L846.7331153571429,75.59999999999997L853.1724225,557.263496537642L859.504407857143,73.30923073508524L865.8006192857143,92.78181818181821L872.2041525000001,222.7910489169034L878.6434596428572,146.6180419921875L885.0827667857143,174.68195800781248L891.3789782142858,72.73622381036932L897.7467375000001,15.46363636363634L904.8657492857144,34.363636363636374L911.2335085714286,145.4728670987216L917.601267857143,136.8819580078125L924.4698621428572,80.75454545454545L931.0164910714286,419.8089510830966L937.384250357143,-52.69104891690341L943.7520096428572,213.05454545454546L950.1197689285715,44.10013982599429L956.5233021428572,213.6271329012784L962.9268353571429,-0.572587446732939" style="fill: none;" fill="none"></path></g></g></g></g></g></g><g transform="translate(90, 378)" clip-path="url(#clip_1)"><clipPath id="clip_1"><rect width="1001" height="21"></rect></clipPath><g><g><line x1="0" y1="0" x2="0" y2="5" style="visibility: inherit;" fill="rgb(0, 0, 0)" stroke="rgb(204, 204, 204)" stroke-width="1px"></line><line x1="71.54785714285714" y1="0" x2="71.54785714285714" y2="5" style="visibility: inherit;" fill="rgb(0, 0, 0)" stroke="rgb(204, 204, 204)" stroke-width="1px"></line><line x1="143.09571428571428" y1="0" x2="143.09571428571428" y2="5" style="visibility: inherit;" fill="rgb(0, 0, 0)" stroke="rgb(204, 204, 204)" stroke-width="1px"></line><line x1="214.64357142857142" y1="0" x2="214.64357142857142" y2="5" style="visibility: inherit;" fill="rgb(0, 0, 0)" stroke="rgb(204, 204, 204)" stroke-width="1px"></line><line x1="286.19142857142856" y1="0" x2="286.19142857142856" y2="5" style="visibility: inherit;" fill="rgb(0, 0, 0)" stroke="rgb(204, 204, 204)" stroke-width="1px"></line><line x1="357.73928571428576" y1="0" x2="357.73928571428576" y2="5" style="visibility: inherit;" fill="rgb(0, 0, 0)" stroke="rgb(204, 204, 204)" stroke-width="1px"></line><line x1="429.28714285714284" y1="0" x2="429.28714285714284" y2="5" style="visibility: inherit;" fill="rgb(0, 0, 0)" stroke="rgb(204, 204, 204)" stroke-width="1px"></line><line x1="500.83500000000004" y1="0" x2="500.83500000000004" y2="5" style="visibility: inherit;" fill="rgb(0, 0, 0)" stroke="rgb(204, 204, 204)" stroke-width="1px"></line><line x1="572.3828571428571" y1="0" x2="572.3828571428571" y2="5" style="visibility: inherit;" fill="rgb(0, 0, 0)" stroke="rgb(204, 204, 204)" stroke-width="1px"></line><line x1="643.9307142857144" y1="0" x2="643.9307142857144" y2="5" style="visibility: inherit;" fill="rgb(0, 0, 0)" stroke="rgb(204, 204, 204)" stroke-width="1px"></line><line x1="715.4785714285715" y1="0" x2="715.4785714285715" y2="5" style="visibility: inherit;" fill="rgb(0, 0, 0)" stroke="rgb(204, 204, 204)" stroke-width="1px"></line><line x1="787.0264285714286" y1="0" x2="787.0264285714286" y2="5" style="visibility: inherit;" fill="rgb(0, 0, 0)" stroke="rgb(204, 204, 204)" stroke-width="1px"></line><line x1="858.5742857142857" y1="0" x2="858.5742857142857" y2="5" style="visibility: inherit;" fill="rgb(0, 0, 0)" stroke="rgb(204, 204, 204)" stroke-width="1px"></line><line x1="930.122142857143" y1="0" x2="930.122142857143" y2="5" style="visibility: inherit;" fill="rgb(0, 0, 0)" stroke="rgb(204, 204, 204)" stroke-width="1px"></line><line x1="1001.6700000000001" y1="0" x2="1001.6700000000001" y2="5" style="visibility: inherit;" fill="rgb(0, 0, 0)" stroke="rgb(204, 204, 204)" stroke-width="1px"></line></g><g transform="translate(0, 8)"><text x="0" y="0" dx="0em" dy="0.95em" style="text-anchor: middle; visibility: hidden; font-family: &quot;Helvetica Neue&quot;, sans-serif; font-size: 12px; font-weight: 200;" fill="rgb(50, 49, 63)" stroke="none" stroke-width="1px">-2k</text><text x="71.54785714285714" y="0" dx="0em" dy="0.95em" style="text-anchor: middle; visibility: inherit; font-family: &quot;Helvetica Neue&quot;, sans-serif; font-size: 12px; font-weight: 200;" fill="rgb(50, 49, 63)" stroke="none" stroke-width="1px">0</text><text x="143.09571428571428" y="0" dx="0em" dy="0.95em" style="text-anchor: middle; visibility: inherit; font-family: &quot;Helvetica Neue&quot;, sans-serif; font-size: 12px; font-weight: 200;" fill="rgb(50, 49, 63)" stroke="none" stroke-width="1px">2k</text><text x="214.64357142857142" y="0" dx="0em" dy="0.95em" style="text-anchor: middle; visibility: inherit; font-family: &quot;Helvetica Neue&quot;, sans-serif; font-size: 12px; font-weight: 200;" fill="rgb(50, 49, 63)" stroke="none" stroke-width="1px">4k</text><text x="286.19142857142856" y="0" dx="0em" dy="0.95em" style="text-anchor: middle; visibility: inherit; font-family: &quot;Helvetica Neue&quot;, sans-serif; font-size: 12px; font-weight: 200;" fill="rgb(50, 49, 63)" stroke="none" stroke-width="1px">6k</text><text x="357.73928571428576" y="0" dx="0em" dy="0.95em" style="text-anchor: middle; visibility: inherit; font-family: &quot;Helvetica Neue&quot;, sans-serif; font-size: 12px; font-weight: 200;" fill="rgb(50, 49, 63)" stroke="none" stroke-width="1px">8k</text><text x="429.28714285714284" y="0" dx="0em" dy="0.95em" style="text-anchor: middle; visibility: inherit; font-family: &quot;Helvetica Neue&quot;, sans-serif; font-size: 12px; font-weight: 200;" fill="rgb(50, 49, 63)" stroke="none" stroke-width="1px">10k</text><text x="500.83500000000004" y="0" dx="0em" dy="0.95em" style="text-anchor: middle; visibility: inherit; font-family: &quot;Helvetica Neue&quot;, sans-serif; font-size: 12px; font-weight: 200;" fill="rgb(50, 49, 63)" stroke="none" stroke-width="1px">12k</text><text x="572.3828571428571" y="0" dx="0em" dy="0.95em" style="text-anchor: middle; visibility: inherit; font-family: &quot;Helvetica Neue&quot;, sans-serif; font-size: 12px; font-weight: 200;" fill="rgb(50, 49, 63)" stroke="none" stroke-width="1px">14k</text><text x="643.9307142857144" y="0" dx="0em" dy="0.95em" style="text-anchor: middle; visibility: inherit; font-family: &quot;Helvetica Neue&quot;, sans-serif; font-size: 12px; font-weight: 200;" fill="rgb(50, 49, 63)" stroke="none" stroke-width="1px">16k</text><text x="715.4785714285715" y="0" dx="0em" dy="0.95em" style="text-anchor: middle; visibility: inherit; font-family: &quot;Helvetica Neue&quot;, sans-serif; font-size: 12px; font-weight: 200;" fill="rgb(50, 49, 63)" stroke="none" stroke-width="1px">18k</text><text x="787.0264285714286" y="0" dx="0em" dy="0.95em" style="text-anchor: middle; visibility: inherit; font-family: &quot;Helvetica Neue&quot;, sans-serif; font-size: 12px; font-weight: 200;" fill="rgb(50, 49, 63)" stroke="none" stroke-width="1px">20k</text><text x="858.5742857142857" y="0" dx="0em" dy="0.95em" style="text-anchor: middle; visibility: inherit; font-family: &quot;Helvetica Neue&quot;, sans-serif; font-size: 12px; font-weight: 200;" fill="rgb(50, 49, 63)" stroke="none" stroke-width="1px">22k</text><text x="930.122142857143" y="0" dx="0em" dy="0.95em" style="text-anchor: middle; visibility: inherit; font-family: &quot;Helvetica Neue&quot;, sans-serif; font-size: 12px; font-weight: 200;" fill="rgb(50, 49, 63)" stroke="none" stroke-width="1px">24k</text><text x="1001.6700000000001" y="0" dx="0em" dy="0.95em" style="text-anchor: middle; visibility: hidden; font-family: &quot;Helvetica Neue&quot;, sans-serif; font-size: 12px; font-weight: 200;" fill="rgb(50, 49, 63)" stroke="none" stroke-width="1px">26k</text></g><line x1="0" y1="0" x2="1001.6700000000001" y2="0" fill="rgb(0, 0, 0)" stroke="rgb(204, 204, 204)" stroke-width="1px"></line></g></g></g></g></svg>